<svg xmlns="http://www.w3.org/2000/svg" width="21" height="22" fill="none" viewBox="0 0 21 22"><path fill="#fff" d="M20.7932 8.93722C20.9271 9.67361 21 10.4435 21 11.247C21 17.5314 16.903 22 10.715 22C9.30774 22.0004 7.91422 21.7162 6.61402 21.1636C5.31383 20.6109 4.13245 19.8007 3.13739 18.7792C2.14232 17.7576 1.35308 16.5448 0.814755 15.21C0.27643 13.8753 -0.000428558 12.4447 4.97926e-07 11C-0.000428558 9.55534 0.27643 8.12474 0.814755 6.78996C1.35308 5.45518 2.14232 4.24238 3.13739 3.22084C4.13245 2.19931 5.31383 1.38907 6.61402 0.836429C7.91422 0.283783 9.30774 -0.000439958 10.715 5.11172e-07C13.6081 5.11172e-07 16.0257 1.09285 17.8804 2.86733L14.8599 5.9682V5.96038C13.7355 4.86083 12.3085 4.29653 10.715 4.29653C7.1796 4.29653 4.30602 7.36276 4.30602 10.9933C4.30602 14.6227 7.1796 17.6957 10.715 17.6957C13.9227 17.6957 16.1062 15.8128 16.5547 13.227H10.715V8.93722H20.7943H20.7932Z"/></svg>