<svg width="18" height="20" viewBox="0 0 18 20" fill="none" xmlns="http://www.w3.org/2000/svg">
<path d="M17.1216 15.8969C16.6795 14.8496 16.0379 13.8984 15.2326 13.0961C14.4297 12.2915 13.4786 11.65 12.4318 11.207C12.4224 11.2023 12.413 11.2 12.4037 11.1953C13.8638 10.1406 14.813 8.42266 14.813 6.48438C14.813 3.27344 12.2115 0.671875 9.00055 0.671875C5.78961 0.671875 3.18805 3.27344 3.18805 6.48438C3.18805 8.42266 4.13727 10.1406 5.59742 11.1977C5.58805 11.2023 5.57867 11.2047 5.5693 11.2094C4.5193 11.6523 3.57711 12.2875 2.76852 13.0984C1.96393 13.9013 1.32243 14.8524 0.879453 15.8992C0.444271 16.924 0.209567 18.0228 0.188047 19.1359C0.187421 19.161 0.191809 19.1858 0.200951 19.2091C0.210093 19.2324 0.223805 19.2537 0.241279 19.2716C0.258753 19.2895 0.279635 19.3037 0.302694 19.3134C0.325754 19.3231 0.350525 19.3281 0.375547 19.3281H1.7818C1.88492 19.3281 1.96695 19.2461 1.9693 19.1453C2.01617 17.3359 2.74273 15.6414 4.02711 14.357C5.35602 13.0281 7.12086 12.2969 9.00055 12.2969C10.8802 12.2969 12.6451 13.0281 13.974 14.357C15.2584 15.6414 15.9849 17.3359 16.0318 19.1453C16.0341 19.2484 16.1162 19.3281 16.2193 19.3281H17.6255C17.6506 19.3281 17.6753 19.3231 17.6984 19.3134C17.7215 19.3037 17.7423 19.2895 17.7598 19.2716C17.7773 19.2537 17.791 19.2324 17.8001 19.2091C17.8093 19.1858 17.8137 19.161 17.813 19.1359C17.7896 18.0156 17.5576 16.9258 17.1216 15.8969V15.8969ZM9.00055 10.5156C7.92477 10.5156 6.91227 10.0961 6.15055 9.33438C5.38883 8.57266 4.9693 7.56016 4.9693 6.48438C4.9693 5.40859 5.38883 4.39609 6.15055 3.63437C6.91227 2.87266 7.92477 2.45312 9.00055 2.45312C10.0763 2.45312 11.0888 2.87266 11.8505 3.63437C12.6123 4.39609 13.0318 5.40859 13.0318 6.48438C13.0318 7.56016 12.6123 8.57266 11.8505 9.33438C11.0888 10.0961 10.0763 10.5156 9.00055 10.5156Z" fill="#19AB6D"/>
</svg>
